<svg xmlns="http://www.w3.org/2000/svg" xmlns:xlink="http://www.w3.org/1999/xlink" width="600" zoomAndPan="magnify" viewBox="0 0 450 236.249991" height="315" preserveAspectRatio="xMidYMid meet" version="1.0"><defs><g/><clipPath id="e955164364"><path d="M 170.453125 99 L 359 99 L 359 117 L 170.453125 117 Z M 170.453125 99 " clip-rule="nonzero"/></clipPath></defs><g clip-path="url(#e955164364)"><path fill="#fff" d="M 171.6875 110.007812 C 171.167969 110.808594 170.464844 110.175781 170.914062 109.472656 C 187.496094 83.566406 197.898438 118.707031 231.234375 115.757812 C 282.5625 111.214844 325.464844 96.71875 357.402344 109.199219 C 359.625 110.070312 358.058594 111.898438 356.183594 111.042969 C 329.605469 98.964844 280.230469 111.613281 231.011719 116.738281 C 197.664062 120.210938 188.234375 84.523438 171.6875 110.007812 Z M 171.6875 110.007812 " fill-opacity="1" fill-rule="nonzero"/></g><g fill="#fff" fill-opacity="1"><g transform="translate(79.469815, 123.358376)"><g><path d="M 76.796875 -22.070312 C 79.667969 -37.5 82.238281 -53.46875 80.445312 -56.9375 C 80.027344 -58.792969 76.257812 -58.792969 76.796875 -56.28125 C 77.515625 -53.050781 75.0625 -35.707031 72.132812 -21.234375 C 63.996094 -19.796875 57.058594 -17.644531 47.25 -14.59375 C 50.957031 -34.929688 52.871094 -56.339844 39.894531 -57.238281 C 28.589844 -58.015625 19.140625 -44.320312 19.199219 -29.90625 C 4.425781 -36.246094 -4.1875 -24.101562 1.972656 -14.054688 L 3.527344 -14.054688 C -3.050781 -22.367188 3.527344 -35.289062 19.078125 -29.066406 C 19.320312 -15.429688 24.523438 -9.6875 29.066406 -10.289062 C 33.375 -10.886719 36.605469 -21.292969 20.394531 -29.605469 C 19.976562 -42.40625 28.886719 -57.539062 39.894531 -56.28125 C 51.375 -54.964844 47.609375 -33.433594 43.125 -13.21875 C 38.816406 -11.78125 34.691406 -10.167969 30.980469 -8.375 C 30.324219 -8.015625 30.800781 -7.238281 31.222656 -7.296875 C 34.691406 -8.972656 38.636719 -10.585938 42.882812 -12.023438 C 39.535156 2.8125 35.886719 16.628906 37.738281 20.933594 C 38.695312 23.148438 41.628906 22.96875 41.328125 20.277344 C 40.730469 15.070312 44.257812 1.195312 47.011719 -13.335938 C 56.640625 -16.386719 63.699219 -18.660156 71.890625 -20.097656 C 68.722656 -0.539062 64.773438 18.0625 72.191406 20.632812 C 79.070312 22.96875 95.816406 -3.707031 102.753906 -13.996094 C 102.753906 -14.292969 101.976562 -14.414062 101.738281 -14.113281 C 98.867188 -10.824219 83.433594 15.730469 73.984375 19.5 C 68.484375 21.652344 72.667969 -0.0585938 76.558594 -20.8125 C 81.222656 -21.53125 85.230469 -22.070312 86.605469 -22.191406 C 87.082031 -22.308594 87.023438 -23.148438 86.484375 -23.207031 C 84.632812 -23.085938 81.222656 -22.726562 76.796875 -22.070312 Z M 29.425781 -11.125 C 26.015625 -10.347656 21.054688 -13.335938 20.214844 -28.589844 C 34.628906 -20.875 32.179688 -11.78125 29.425781 -11.125 Z M 29.425781 -11.125 "/></g></g></g><g fill="#fff" fill-opacity="1"><g transform="translate(181.146931, 123.358376)"><g><path d="M 38.9375 19.855469 C 25.71875 22.308594 21.351562 6.339844 25.71875 -6.101562 C 43.839844 -7.65625 44.558594 -13.695312 40.851562 -15.910156 C 36.902344 -18.242188 28.171875 -16.746094 24.703125 -6.816406 C 12.917969 -5.621094 3.171875 0.300781 1.675781 12.140625 C 1.496094 12.320312 2.8125 12.140625 3.289062 12.140625 C 4.484375 0.539062 13.21875 -4.546875 24.460938 -5.980469 C 20.753906 6.519531 24.222656 21.171875 36.960938 20.933594 C 68.484375 20.277344 64.476562 -49.582031 70.515625 -57.179688 C 70.996094 -57.777344 67.167969 -57.359375 66.75 -57.296875 C 39.652344 -55.144531 23.085938 -23.984375 57.238281 -4.304688 C 53.949219 7.953125 48.625 18.0625 38.9375 19.855469 Z M 57.476562 -5.261719 C 27.511719 -22.726562 37.140625 -52.394531 66.507812 -56.339844 C 62.382812 -51.675781 62.679688 -25.71875 57.476562 -5.261719 Z M 40.3125 -14.535156 C 42.585938 -12.800781 42.105469 -8.613281 25.957031 -6.996094 C 29.1875 -15.910156 37.382812 -16.746094 40.3125 -14.535156 Z M 40.3125 -14.535156 "/></g></g></g><g fill="#fff" fill-opacity="1"><g transform="translate(193.509376, 155.88013)"><g><path d="M 8.53125 0 L 7.3125 0 L 7.3125 -4 L 2.53125 -4 L 2.53125 0 L 1.3125 0 L 1.3125 -9.109375 L 2.53125 -9.109375 L 2.53125 -5.171875 L 7.3125 -5.171875 L 7.3125 -9.109375 L 8.53125 -9.109375 Z M 8.53125 0 "/></g></g></g><g fill="#fff" fill-opacity="1"><g transform="translate(206.59298, 155.88013)"><g><path d="M 6.09375 -2.390625 L 2.578125 -2.390625 L 1.609375 0 L 0.40625 0 L 4.390625 -9.5 L 4.46875 -9.5 L 8.453125 0 L 7.03125 0 Z M 5.671875 -3.453125 L 4.375 -6.78125 L 3.03125 -3.453125 Z M 5.671875 -3.453125 "/></g></g></g><g fill="#fff" fill-opacity="1"><g transform="translate(218.668219, 155.88013)"><g><path d="M 10.375 -9.40625 L 10.375 0 L 9.171875 0 L 9.171875 -5.90625 L 5.8125 -1.140625 L 5.78125 -1.140625 L 2.5 -5.734375 L 2.5 0 L 1.3125 0 L 1.3125 -9.40625 L 1.328125 -9.40625 L 5.8125 -3.046875 L 10.359375 -9.40625 Z M 10.375 -9.40625 "/></g></g></g><g fill="#fff" fill-opacity="1"><g transform="translate(233.592073, 155.88013)"><g><path d="M 1.3125 -9.109375 L 3.8125 -9.109375 C 4.945312 -9.109375 5.882812 -8.882812 6.625 -8.4375 C 7.375 -7.988281 7.914062 -7.410156 8.25 -6.703125 C 8.59375 -5.992188 8.765625 -5.242188 8.765625 -4.453125 C 8.765625 -3.566406 8.554688 -2.785156 8.140625 -2.109375 C 7.734375 -1.429688 7.179688 -0.910156 6.484375 -0.546875 C 5.796875 -0.179688 5.050781 0 4.25 0 L 1.3125 0 Z M 4.015625 -1.1875 C 4.679688 -1.1875 5.28125 -1.316406 5.8125 -1.578125 C 6.34375 -1.847656 6.753906 -2.234375 7.046875 -2.734375 C 7.347656 -3.242188 7.5 -3.847656 7.5 -4.546875 C 7.5 -5.253906 7.34375 -5.863281 7.03125 -6.375 C 6.71875 -6.894531 6.300781 -7.285156 5.78125 -7.546875 C 5.269531 -7.804688 4.71875 -7.9375 4.125 -7.9375 L 2.53125 -7.9375 L 2.53125 -1.1875 Z M 4.015625 -1.1875 "/></g></g></g><g fill="#fff" fill-opacity="1"><g transform="translate(246.335357, 155.88013)"><g><path d="M 2.53125 -9.109375 L 2.53125 0 L 1.3125 0 L 1.3125 -9.109375 Z M 2.53125 -9.109375 "/></g></g></g><g fill="#fff" fill-opacity="1"><g transform="translate(253.419237, 155.88013)"><g/></g></g><g fill="#fff" fill-opacity="1"><g transform="translate(260.641757, 155.88013)"><g><path d="M 2.53125 -9.109375 L 2.53125 0 L 1.3125 0 L 1.3125 -9.109375 Z M 2.53125 -9.109375 "/></g></g></g><g fill="#fff" fill-opacity="1"><g transform="translate(267.725637, 155.88013)"><g><path d="M 6.03125 -7.484375 C 5.695312 -7.660156 5.34375 -7.800781 4.96875 -7.90625 C 4.601562 -8.019531 4.257812 -8.078125 3.9375 -8.078125 C 3.4375 -8.078125 3.039062 -7.96875 2.75 -7.75 C 2.457031 -7.53125 2.3125 -7.222656 2.3125 -6.828125 C 2.3125 -6.453125 2.484375 -6.144531 2.828125 -5.90625 C 3.171875 -5.664062 3.65625 -5.425781 4.28125 -5.1875 C 4.757812 -5.019531 5.160156 -4.835938 5.484375 -4.640625 C 5.804688 -4.441406 6.070312 -4.164062 6.28125 -3.8125 C 6.5 -3.46875 6.609375 -3.03125 6.609375 -2.5 C 6.609375 -2.007812 6.484375 -1.566406 6.234375 -1.171875 C 5.992188 -0.773438 5.648438 -0.460938 5.203125 -0.234375 C 4.753906 -0.015625 4.226562 0.09375 3.625 0.09375 C 3.0625 0.09375 2.515625 0.00390625 1.984375 -0.171875 C 1.460938 -0.347656 1.007812 -0.578125 0.625 -0.859375 L 1.15625 -1.828125 C 1.46875 -1.585938 1.84375 -1.382812 2.28125 -1.21875 C 2.71875 -1.0625 3.125 -0.984375 3.5 -0.984375 C 3.988281 -0.984375 4.414062 -1.109375 4.78125 -1.359375 C 5.144531 -1.609375 5.328125 -1.984375 5.328125 -2.484375 C 5.328125 -2.898438 5.171875 -3.234375 4.859375 -3.484375 C 4.554688 -3.734375 4.128906 -3.96875 3.578125 -4.1875 C 3.066406 -4.375 2.640625 -4.5625 2.296875 -4.75 C 1.960938 -4.9375 1.671875 -5.191406 1.421875 -5.515625 C 1.179688 -5.835938 1.0625 -6.242188 1.0625 -6.734375 C 1.0625 -7.453125 1.3125 -8.03125 1.8125 -8.46875 C 2.3125 -8.90625 2.957031 -9.140625 3.75 -9.171875 C 4.738281 -9.171875 5.65625 -8.925781 6.5 -8.4375 Z M 6.03125 -7.484375 "/></g></g></g><g fill="#fff" fill-opacity="1"><g transform="translate(278.300943, 155.88013)"><g><path d="M 10.375 -9.40625 L 10.375 0 L 9.171875 0 L 9.171875 -5.90625 L 5.8125 -1.140625 L 5.78125 -1.140625 L 2.5 -5.734375 L 2.5 0 L 1.3125 0 L 1.3125 -9.40625 L 1.328125 -9.40625 L 5.8125 -3.046875 L 10.359375 -9.40625 Z M 10.375 -9.40625 "/></g></g></g><g fill="#fff" fill-opacity="1"><g transform="translate(293.224794, 155.88013)"><g><path d="M 6.09375 -2.390625 L 2.578125 -2.390625 L 1.609375 0 L 0.40625 0 L 4.390625 -9.5 L 4.46875 -9.5 L 8.453125 0 L 7.03125 0 Z M 5.671875 -3.453125 L 4.375 -6.78125 L 3.03125 -3.453125 Z M 5.671875 -3.453125 "/></g></g></g><g fill="#fff" fill-opacity="1"><g transform="translate(305.30003, 155.88013)"><g><path d="M 2.53125 -9.109375 L 2.53125 0 L 1.3125 0 L 1.3125 -9.109375 Z M 2.53125 -9.109375 "/></g></g></g><g fill="#fff" fill-opacity="1"><g transform="translate(312.38391, 155.88013)"><g><path d="M 2.53125 -9.109375 L 2.53125 -1.1875 L 7.171875 -1.1875 L 7.171875 0 L 1.3125 0 L 1.3125 -9.109375 Z M 2.53125 -9.109375 "/></g></g></g></svg>